<svg version="1.1" id="Layer_1" xmlns="http://www.w3.org/2000/svg" xmlns:xlink="http://www.w3.org/1999/xlink" x="0px" y="0px"
	 width="100%" viewBox="0 0 168 152" enable-background="new 0 0 168 152" xml:space="preserve">
<path fill="#202020" opacity="1.000000" stroke="none" 
	d="
M81.000000,153.000000 
	C54.000004,153.000000 27.500006,153.000000 1.000007,153.000000 
	C1.000005,102.333344 1.000005,51.666687 1.000002,1.000021 
	C56.999985,1.000014 112.999969,1.000014 168.999969,1.000007 
	C168.999969,51.666645 168.999969,102.333290 168.999985,152.999969 
	C139.833328,153.000000 110.666664,153.000000 81.000000,153.000000 
M90.540474,93.940392 
	C91.344368,92.879951 92.148262,91.819511 92.338211,91.568947 
	C96.444481,92.711884 99.515007,94.061882 102.681641,94.347870 
	C109.930923,95.002548 117.699799,88.374702 118.951653,80.966759 
	C120.249695,73.285477 117.538132,69.770699 108.341370,67.241875 
	C107.703285,67.066414 107.013901,67.066978 106.385651,66.867989 
	C101.621307,65.359001 100.318848,61.671360 103.258942,57.606060 
	C105.531281,54.464069 108.561485,52.487907 112.625916,53.499023 
	C116.883339,54.558147 118.195190,57.684151 118.121269,61.819107 
	C118.099373,63.043861 119.001289,64.285133 119.479881,65.518837 
	C120.203072,64.948166 121.381546,64.500999 121.575302,63.786720 
	C122.801056,59.268089 123.808739,54.690308 124.888374,50.132042 
	C124.520401,49.881435 124.152420,49.630825 123.784439,49.380215 
	C122.329079,50.474171 120.873718,51.568127 119.389473,52.683792 
	C110.263016,46.263294 98.058922,51.054756 95.939415,61.984829 
	C94.641991,68.675468 96.824471,72.183395 103.507187,74.167900 
	C105.568703,74.780090 108.075951,74.893318 109.559441,76.180023 
	C111.179535,77.585213 112.819534,80.125504 112.739708,82.101921 
	C112.547791,86.854088 107.092339,91.115974 102.795052,90.695038 
	C96.972542,90.124702 94.724121,87.454514 94.532036,81.171356 
	C94.505028,80.287903 93.703209,79.428131 93.260033,78.557396 
	C92.513519,79.263123 91.349220,79.843086 91.092438,80.696220 
	C89.949974,84.491859 88.985840,88.348961 88.188042,92.231270 
	C88.081688,92.748856 89.294418,93.537498 90.540474,93.940392 
M59.255356,58.953388 
	C60.130508,56.888756 62.217560,54.230526 61.571293,52.911106 
	C60.779503,51.294586 57.726662,50.051384 55.603745,49.975239 
	C51.302101,49.820938 49.301430,53.191875 48.127892,56.810440 
	C47.172749,59.755604 46.633072,62.835503 45.938091,65.734940 
	C40.032623,66.216301 40.032623,66.216301 40.186886,69.754646 
	C41.749931,69.913109 43.331161,70.073418 45.320683,70.275116 
	C43.454933,79.970665 41.658291,89.307083 40.054802,97.639763 
	C37.700935,97.177834 35.534199,96.147575 33.779888,96.626884 
	C32.661289,96.932495 31.231009,99.756111 31.594299,100.945625 
	C32.103954,102.614380 34.192070,105.002319 35.531883,104.956238 
	C38.016014,104.870781 41.081413,103.847351 42.734737,102.104568 
	C44.662735,100.072235 45.783936,96.958977 46.470272,94.124672 
	C48.371353,86.273956 49.864471,78.324448 51.445324,70.765450 
	C53.583805,68.614746 58.787239,72.088676 59.118755,66.252396 
	C56.379021,66.078690 54.417961,65.954353 52.234562,65.815926 
	C52.911743,62.286770 53.549858,58.961193 54.045750,56.376839 
	C55.527470,57.261505 56.993095,58.136566 59.255356,58.953388 
M137.120865,79.422501 
	C137.395020,89.966202 134.041214,99.277435 127.507607,107.867935 
	C129.393631,107.699890 131.091553,107.300140 132.209625,106.270668 
	C146.450836,93.158020 146.321091,61.730221 131.971664,48.587914 
	C130.936691,47.639988 129.303131,47.345592 127.947891,46.747337 
	C127.566841,47.061214 127.185799,47.375088 126.804756,47.688965 
	C135.063995,56.472958 137.567886,67.022324 137.120865,79.422501 
M67.312904,70.092316 
	C67.231255,73.575897 66.900948,77.074890 67.115723,80.540100 
	C67.703156,90.017563 70.122925,98.867401 77.152222,105.784348 
	C78.314690,106.928238 79.975586,107.565605 81.406143,108.437050 
	C81.822601,108.036606 82.239052,107.636162 82.655510,107.235718 
	C74.666962,98.753593 72.402138,88.341019 72.399361,77.411285 
	C72.396591,66.502884 74.779274,56.149372 83.141174,47.406914 
	C75.945015,47.467903 69.757256,56.891056 67.312904,70.092316 
z"/>
<path fill="#D5D6D7" opacity="1.000000" stroke="none" 
	d="
M90.218384,94.070496 
	C89.294418,93.537498 88.081688,92.748856 88.188042,92.231270 
	C88.985840,88.348961 89.949974,84.491859 91.092438,80.696220 
	C91.349220,79.843086 92.513519,79.263123 93.260033,78.557396 
	C93.703209,79.428131 94.505028,80.287903 94.532036,81.171356 
	C94.724121,87.454514 96.972542,90.124702 102.795052,90.695038 
	C107.092339,91.115974 112.547791,86.854088 112.739708,82.101921 
	C112.819534,80.125504 111.179535,77.585213 109.559441,76.180023 
	C108.075951,74.893318 105.568703,74.780090 103.507187,74.167900 
	C96.824471,72.183395 94.641991,68.675468 95.939415,61.984829 
	C98.058922,51.054756 110.263016,46.263294 119.389473,52.683792 
	C120.873718,51.568127 122.329079,50.474171 123.784439,49.380215 
	C124.152420,49.630825 124.520401,49.881435 124.888374,50.132042 
	C123.808739,54.690308 122.801056,59.268089 121.575302,63.786720 
	C121.381546,64.500999 120.203072,64.948166 119.479881,65.518837 
	C119.001289,64.285133 118.099373,63.043861 118.121269,61.819107 
	C118.195190,57.684151 116.883339,54.558147 112.625916,53.499023 
	C108.561485,52.487907 105.531281,54.464069 103.258942,57.606060 
	C100.318848,61.671360 101.621307,65.359001 106.385651,66.867989 
	C107.013901,67.066978 107.703285,67.066414 108.341370,67.241875 
	C117.538132,69.770699 120.249695,73.285477 118.951653,80.966759 
	C117.699799,88.374702 109.930923,95.002548 102.681641,94.347870 
	C99.515007,94.061882 96.444481,92.711884 92.338211,91.568947 
	C92.148262,91.819511 91.344368,92.879951 90.218384,94.070496 
z"/>
<path fill="#D4D5D6" opacity="1.000000" stroke="none" 
	d="
M58.857040,58.982506 
	C56.993095,58.136566 55.527470,57.261505 54.045750,56.376839 
	C53.549858,58.961193 52.911743,62.286770 52.234562,65.815926 
	C54.417961,65.954353 56.379021,66.078690 59.118755,66.252396 
	C58.787239,72.088676 53.583805,68.614746 51.445324,70.765450 
	C49.864471,78.324448 48.371353,86.273956 46.470272,94.124672 
	C45.783936,96.958977 44.662735,100.072235 42.734737,102.104568 
	C41.081413,103.847351 38.016014,104.870781 35.531883,104.956238 
	C34.192070,105.002319 32.103954,102.614380 31.594299,100.945625 
	C31.231009,99.756111 32.661289,96.932495 33.779888,96.626884 
	C35.534199,96.147575 37.700935,97.177834 40.054802,97.639763 
	C41.658291,89.307083 43.454933,79.970665 45.320683,70.275116 
	C43.331161,70.073418 41.749931,69.913109 40.186886,69.754646 
	C40.032623,66.216301 40.032623,66.216301 45.938091,65.734940 
	C46.633072,62.835503 47.172749,59.755604 48.127892,56.810440 
	C49.301430,53.191875 51.302101,49.820938 55.603745,49.975239 
	C57.726662,50.051384 60.779503,51.294586 61.571293,52.911106 
	C62.217560,54.230526 60.130508,56.888756 58.857040,58.982506 
z"/>
<path fill="#D2D3D4" opacity="1.000000" stroke="none" 
	d="
M137.145569,78.942093 
	C137.567886,67.022324 135.063995,56.472958 126.804756,47.688965 
	C127.185799,47.375088 127.566841,47.061214 127.947891,46.747337 
	C129.303131,47.345592 130.936691,47.639988 131.971664,48.587914 
	C146.321091,61.730221 146.450836,93.158020 132.209625,106.270668 
	C131.091553,107.300140 129.393631,107.699890 127.507607,107.867935 
	C134.041214,99.277435 137.395020,89.966202 137.145569,78.942093 
z"/>
<path fill="#D3D4D5" opacity="1.000000" stroke="none" 
	d="
M67.453903,69.672348 
	C69.757256,56.891056 75.945015,47.467903 83.141174,47.406914 
	C74.779274,56.149372 72.396591,66.502884 72.399361,77.411285 
	C72.402138,88.341019 74.666962,98.753593 82.655510,107.235718 
	C82.239052,107.636162 81.822601,108.036606 81.406143,108.437050 
	C79.975586,107.565605 78.314690,106.928238 77.152222,105.784348 
	C70.122925,98.867401 67.703156,90.017563 67.115723,80.540100 
	C66.900948,77.074890 67.231255,73.575897 67.453903,69.672348 
z"/>
</svg>